<?xml version="1.0" encoding="UTF-8"?>
<svg id="Calque_1" data-name="Calque 1" xmlns="http://www.w3.org/2000/svg" viewBox="0 0 139.66 143.56">
  <defs>
    <style>
      .cls-1 {
        fill: #267180;
      }

      .cls-2 {
        fill: #67c1bf;
      }

      .cls-3 {
        fill: #66c1bf;
      }

      .cls-4 {
        fill: #1d2748;
      }
    </style>
  </defs>
  <circle class="cls-4" cx="59.26" cy="87.09" r="12"/>
  <circle class="cls-2" cx="100.28" cy="67.77" r="12"/>
  <circle class="cls-1" cx="66.2" cy="49.55" r="12"/>
  <path class="cls-3" d="M119.02,42.85c-3.17-2.15-6.55-3.81-10.05-5.01,14.47,16.9,15.13,44.37.12,66.45-15.01,22.09-40.79,31.59-61.83,24.36,2.41,2.81,5.19,5.35,8.36,7.5,22.19,15.08,54.37,6.42,71.88-19.35s13.71-58.87-8.48-73.95Z"/>
  <path class="cls-4" d="M83.99,117.21c3.88-2.17,7.39-4.75,10.53-7.63-24.59,7.09-51.71-3.34-64.77-26.63s-7.79-51.86,11.09-69.15c-4.1,1.18-8.13,2.83-12.01,5C1.66,34.04-8.02,68.41,7.21,95.59c15.23,27.17,49.6,36.85,76.77,21.62Z"/>
  <path class="cls-1" d="M27.18,62.41c.47,4.42,1.46,8.66,2.87,12.69,3.16-25.4,23.41-46.23,49.96-49.08,26.55-2.84,50.75,13.23,59.21,37.39.53-4.23.59-8.58.12-13.01C136.03,19.43,108.23-2.99,77.26.33,46.29,3.64,23.87,31.44,27.18,62.41Z"/>
</svg>